<mxfile host="app.diagrams.net" agent="Mozilla/5.0 (Windows NT 10.0; Win64; x64) AppleWebKit/537.36 (KHTML, like Gecko) Chrome/132.0.0.0 YaBrowser/25.2.0.0 Safari/537.36" version="26.1.1">
  <diagram name="Страница — 1" id="dEY0YUBSb8TnR2mOWr7f">
    <mxGraphModel dx="2206" dy="1217" grid="1" gridSize="10" guides="1" tooltips="1" connect="1" arrows="1" fold="1" page="1" pageScale="1" pageWidth="827" pageHeight="1169" math="0" shadow="0">
      <root>
        <mxCell id="0" />
        <mxCell id="1" parent="0" />
        <mxCell id="JdyrteHenk-KRQQuT3aM-6" value="" style="edgeStyle=orthogonalEdgeStyle;rounded=0;orthogonalLoop=1;jettySize=auto;html=1;" parent="1" source="JdyrteHenk-KRQQuT3aM-2" target="JdyrteHenk-KRQQuT3aM-5" edge="1">
          <mxGeometry relative="1" as="geometry" />
        </mxCell>
        <mxCell id="JdyrteHenk-KRQQuT3aM-2" value="" style="ellipse;html=1;shape=startState;fillColor=#000000;strokeColor=default;" parent="1" vertex="1">
          <mxGeometry x="399" y="60" width="30" height="30" as="geometry" />
        </mxCell>
        <mxCell id="JdyrteHenk-KRQQuT3aM-4" value="" style="ellipse;html=1;shape=endState;fillColor=#000000;strokeColor=#000000;" parent="1" vertex="1">
          <mxGeometry x="435" y="1090" width="30" height="30" as="geometry" />
        </mxCell>
        <mxCell id="JdyrteHenk-KRQQuT3aM-9" value="" style="edgeStyle=orthogonalEdgeStyle;rounded=0;orthogonalLoop=1;jettySize=auto;html=1;" parent="1" source="JdyrteHenk-KRQQuT3aM-5" target="JdyrteHenk-KRQQuT3aM-8" edge="1">
          <mxGeometry relative="1" as="geometry" />
        </mxCell>
        <mxCell id="JdyrteHenk-KRQQuT3aM-5" value="Создание заказа" style="whiteSpace=wrap;html=1;fillColor=none;fontSize=15;" parent="1" vertex="1">
          <mxGeometry x="354" y="155" width="120" height="60" as="geometry" />
        </mxCell>
        <mxCell id="JdyrteHenk-KRQQuT3aM-11" style="edgeStyle=orthogonalEdgeStyle;rounded=0;orthogonalLoop=1;jettySize=auto;html=1;entryX=1;entryY=0.5;entryDx=0;entryDy=0;" parent="1" source="JdyrteHenk-KRQQuT3aM-8" target="JdyrteHenk-KRQQuT3aM-10" edge="1">
          <mxGeometry relative="1" as="geometry" />
        </mxCell>
        <mxCell id="JdyrteHenk-KRQQuT3aM-12" value="Отмена" style="edgeLabel;html=1;align=center;verticalAlign=middle;resizable=0;points=[];fontSize=14;" parent="JdyrteHenk-KRQQuT3aM-11" vertex="1" connectable="0">
          <mxGeometry x="0.0213" y="2" relative="1" as="geometry">
            <mxPoint y="-2" as="offset" />
          </mxGeometry>
        </mxCell>
        <mxCell id="JdyrteHenk-KRQQuT3aM-16" value="" style="edgeStyle=orthogonalEdgeStyle;rounded=0;orthogonalLoop=1;jettySize=auto;html=1;" parent="1" source="JdyrteHenk-KRQQuT3aM-8" target="JdyrteHenk-KRQQuT3aM-15" edge="1">
          <mxGeometry relative="1" as="geometry" />
        </mxCell>
        <mxCell id="JdyrteHenk-KRQQuT3aM-48" value="Подтверждено" style="edgeLabel;html=1;align=center;verticalAlign=middle;resizable=0;points=[];fontSize=14;" parent="JdyrteHenk-KRQQuT3aM-16" vertex="1" connectable="0">
          <mxGeometry x="0.4" y="1" relative="1" as="geometry">
            <mxPoint x="-3" y="-5" as="offset" />
          </mxGeometry>
        </mxCell>
        <mxCell id="JdyrteHenk-KRQQuT3aM-8" value="Подтверждение заказа" style="whiteSpace=wrap;html=1;fontSize=15;fillColor=none;" parent="1" vertex="1">
          <mxGeometry x="354" y="250" width="120" height="60" as="geometry" />
        </mxCell>
        <mxCell id="JdyrteHenk-KRQQuT3aM-10" value="" style="ellipse;html=1;shape=endState;fillColor=#000000;strokeColor=#000000;" parent="1" vertex="1">
          <mxGeometry x="100" y="266" width="30" height="30" as="geometry" />
        </mxCell>
        <mxCell id="JdyrteHenk-KRQQuT3aM-13" value="Заказ отменён" style="text;html=1;align=center;verticalAlign=middle;whiteSpace=wrap;rounded=0;fontSize=14;" parent="1" vertex="1">
          <mxGeometry x="57.5" y="236" width="115" height="30" as="geometry" />
        </mxCell>
        <mxCell id="JdyrteHenk-KRQQuT3aM-19" value="" style="edgeStyle=orthogonalEdgeStyle;rounded=0;orthogonalLoop=1;jettySize=auto;html=1;" parent="1" source="JdyrteHenk-KRQQuT3aM-15" target="JdyrteHenk-KRQQuT3aM-18" edge="1">
          <mxGeometry relative="1" as="geometry">
            <Array as="points">
              <mxPoint x="294" y="370" />
            </Array>
          </mxGeometry>
        </mxCell>
        <mxCell id="JdyrteHenk-KRQQuT3aM-22" value="На сайте" style="edgeLabel;html=1;align=center;verticalAlign=middle;resizable=0;points=[];fontSize=14;" parent="JdyrteHenk-KRQQuT3aM-19" vertex="1" connectable="0">
          <mxGeometry x="-0.0833" y="4" relative="1" as="geometry">
            <mxPoint y="-4" as="offset" />
          </mxGeometry>
        </mxCell>
        <mxCell id="JdyrteHenk-KRQQuT3aM-21" style="edgeStyle=orthogonalEdgeStyle;rounded=0;orthogonalLoop=1;jettySize=auto;html=1;entryX=0.5;entryY=0;entryDx=0;entryDy=0;" parent="1" source="JdyrteHenk-KRQQuT3aM-15" target="JdyrteHenk-KRQQuT3aM-20" edge="1">
          <mxGeometry relative="1" as="geometry">
            <Array as="points">
              <mxPoint x="534" y="370" />
            </Array>
          </mxGeometry>
        </mxCell>
        <mxCell id="JdyrteHenk-KRQQuT3aM-23" value="На месте" style="edgeLabel;html=1;align=center;verticalAlign=middle;resizable=0;points=[];fontSize=14;" parent="JdyrteHenk-KRQQuT3aM-21" vertex="1" connectable="0">
          <mxGeometry x="-0.6333" y="3" relative="1" as="geometry">
            <mxPoint x="6" y="3" as="offset" />
          </mxGeometry>
        </mxCell>
        <mxCell id="JdyrteHenk-KRQQuT3aM-15" value="Оплата заказа" style="whiteSpace=wrap;html=1;fontSize=15;fillColor=none;" parent="1" vertex="1">
          <mxGeometry x="354" y="340" width="120" height="60" as="geometry" />
        </mxCell>
        <mxCell id="JdyrteHenk-KRQQuT3aM-33" value="" style="edgeStyle=orthogonalEdgeStyle;rounded=0;orthogonalLoop=1;jettySize=auto;html=1;" parent="1" source="JdyrteHenk-KRQQuT3aM-18" target="JdyrteHenk-KRQQuT3aM-32" edge="1">
          <mxGeometry relative="1" as="geometry" />
        </mxCell>
        <mxCell id="JdyrteHenk-KRQQuT3aM-38" style="edgeStyle=orthogonalEdgeStyle;rounded=0;orthogonalLoop=1;jettySize=auto;html=1;entryX=0.5;entryY=0;entryDx=0;entryDy=0;" parent="1" source="JdyrteHenk-KRQQuT3aM-18" target="JdyrteHenk-KRQQuT3aM-20" edge="1">
          <mxGeometry relative="1" as="geometry" />
        </mxCell>
        <mxCell id="JdyrteHenk-KRQQuT3aM-39" value="Оплата прошла" style="edgeLabel;html=1;align=center;verticalAlign=middle;resizable=0;points=[];fontSize=14;" parent="JdyrteHenk-KRQQuT3aM-38" vertex="1" connectable="0">
          <mxGeometry x="-0.112" y="1" relative="1" as="geometry">
            <mxPoint x="-15" y="1" as="offset" />
          </mxGeometry>
        </mxCell>
        <mxCell id="JdyrteHenk-KRQQuT3aM-18" value="Выбор оплаты" style="whiteSpace=wrap;html=1;fontSize=15;fillColor=none;" parent="1" vertex="1">
          <mxGeometry x="234" y="430" width="120" height="60" as="geometry" />
        </mxCell>
        <mxCell id="JdyrteHenk-KRQQuT3aM-42" value="" style="edgeStyle=orthogonalEdgeStyle;rounded=0;orthogonalLoop=1;jettySize=auto;html=1;" parent="1" source="JdyrteHenk-KRQQuT3aM-20" target="JdyrteHenk-KRQQuT3aM-41" edge="1">
          <mxGeometry relative="1" as="geometry" />
        </mxCell>
        <mxCell id="JdyrteHenk-KRQQuT3aM-43" value="Самовывоз" style="edgeLabel;html=1;align=center;verticalAlign=middle;resizable=0;points=[];fontSize=14;" parent="JdyrteHenk-KRQQuT3aM-42" vertex="1" connectable="0">
          <mxGeometry x="0.0759" y="1" relative="1" as="geometry">
            <mxPoint x="44" y="-5" as="offset" />
          </mxGeometry>
        </mxCell>
        <mxCell id="JdyrteHenk-KRQQuT3aM-45" value="" style="edgeStyle=orthogonalEdgeStyle;rounded=0;orthogonalLoop=1;jettySize=auto;html=1;" parent="1" source="JdyrteHenk-KRQQuT3aM-20" target="JdyrteHenk-KRQQuT3aM-44" edge="1">
          <mxGeometry relative="1" as="geometry" />
        </mxCell>
        <mxCell id="JdyrteHenk-KRQQuT3aM-46" value="Доставка" style="edgeLabel;html=1;align=center;verticalAlign=middle;resizable=0;points=[];fontSize=14;" parent="JdyrteHenk-KRQQuT3aM-45" vertex="1" connectable="0">
          <mxGeometry x="-0.0286" y="2" relative="1" as="geometry">
            <mxPoint x="-3" as="offset" />
          </mxGeometry>
        </mxCell>
        <mxCell id="JdyrteHenk-KRQQuT3aM-20" value="Выбор способа получения" style="whiteSpace=wrap;html=1;fontSize=15;fillColor=none;" parent="1" vertex="1">
          <mxGeometry x="474" y="530" width="120" height="60" as="geometry" />
        </mxCell>
        <mxCell id="JdyrteHenk-KRQQuT3aM-34" style="edgeStyle=orthogonalEdgeStyle;rounded=0;orthogonalLoop=1;jettySize=auto;html=1;entryX=0.5;entryY=1;entryDx=0;entryDy=0;" parent="1" source="JdyrteHenk-KRQQuT3aM-32" target="JdyrteHenk-KRQQuT3aM-10" edge="1">
          <mxGeometry relative="1" as="geometry" />
        </mxCell>
        <mxCell id="JdyrteHenk-KRQQuT3aM-36" value="Отмена" style="edgeLabel;html=1;align=center;verticalAlign=middle;resizable=0;points=[];fontSize=14;" parent="JdyrteHenk-KRQQuT3aM-34" vertex="1" connectable="0">
          <mxGeometry x="-0.0597" y="1" relative="1" as="geometry">
            <mxPoint as="offset" />
          </mxGeometry>
        </mxCell>
        <mxCell id="JdyrteHenk-KRQQuT3aM-35" style="edgeStyle=orthogonalEdgeStyle;rounded=0;orthogonalLoop=1;jettySize=auto;html=1;exitX=0.75;exitY=0;exitDx=0;exitDy=0;entryX=0;entryY=0;entryDx=0;entryDy=0;" parent="1" source="JdyrteHenk-KRQQuT3aM-32" target="JdyrteHenk-KRQQuT3aM-15" edge="1">
          <mxGeometry relative="1" as="geometry" />
        </mxCell>
        <mxCell id="JdyrteHenk-KRQQuT3aM-37" value="Повторить" style="edgeLabel;html=1;align=center;verticalAlign=middle;resizable=0;points=[];fontSize=14;" parent="JdyrteHenk-KRQQuT3aM-35" vertex="1" connectable="0">
          <mxGeometry x="0.1799" relative="1" as="geometry">
            <mxPoint as="offset" />
          </mxGeometry>
        </mxCell>
        <mxCell id="JdyrteHenk-KRQQuT3aM-32" value="Оплата не прошла" style="whiteSpace=wrap;html=1;fontSize=15;fillColor=none;" parent="1" vertex="1">
          <mxGeometry x="55" y="430" width="120" height="60" as="geometry" />
        </mxCell>
        <mxCell id="JdyrteHenk-KRQQuT3aM-53" value="" style="edgeStyle=orthogonalEdgeStyle;rounded=0;orthogonalLoop=1;jettySize=auto;html=1;" parent="1" source="JdyrteHenk-KRQQuT3aM-41" target="JdyrteHenk-KRQQuT3aM-52" edge="1">
          <mxGeometry relative="1" as="geometry" />
        </mxCell>
        <mxCell id="JdyrteHenk-KRQQuT3aM-41" value="Выбор места выдачи заказа" style="whiteSpace=wrap;html=1;fontSize=15;fillColor=none;" parent="1" vertex="1">
          <mxGeometry x="309" y="660" width="120" height="60" as="geometry" />
        </mxCell>
        <mxCell id="JdyrteHenk-KRQQuT3aM-54" style="edgeStyle=orthogonalEdgeStyle;rounded=0;orthogonalLoop=1;jettySize=auto;html=1;entryX=0.5;entryY=0;entryDx=0;entryDy=0;" parent="1" source="JdyrteHenk-KRQQuT3aM-44" target="JdyrteHenk-KRQQuT3aM-52" edge="1">
          <mxGeometry relative="1" as="geometry" />
        </mxCell>
        <mxCell id="JdyrteHenk-KRQQuT3aM-44" value="Выбор места доставки" style="whiteSpace=wrap;html=1;fontSize=15;fillColor=none;" parent="1" vertex="1">
          <mxGeometry x="474" y="660" width="120" height="60" as="geometry" />
        </mxCell>
        <mxCell id="JdyrteHenk-KRQQuT3aM-64" style="edgeStyle=orthogonalEdgeStyle;rounded=0;orthogonalLoop=1;jettySize=auto;html=1;entryX=0.5;entryY=0;entryDx=0;entryDy=0;" parent="1" source="JdyrteHenk-KRQQuT3aM-52" target="JdyrteHenk-KRQQuT3aM-59" edge="1">
          <mxGeometry relative="1" as="geometry">
            <Array as="points">
              <mxPoint x="330" y="810" />
            </Array>
          </mxGeometry>
        </mxCell>
        <mxCell id="JdyrteHenk-KRQQuT3aM-66" value="Самовывоз" style="edgeLabel;html=1;align=center;verticalAlign=middle;resizable=0;points=[];fontSize=14;" parent="JdyrteHenk-KRQQuT3aM-64" vertex="1" connectable="0">
          <mxGeometry x="-0.045" relative="1" as="geometry">
            <mxPoint as="offset" />
          </mxGeometry>
        </mxCell>
        <mxCell id="JdyrteHenk-KRQQuT3aM-65" style="edgeStyle=orthogonalEdgeStyle;rounded=0;orthogonalLoop=1;jettySize=auto;html=1;entryX=0.5;entryY=0;entryDx=0;entryDy=0;" parent="1" source="JdyrteHenk-KRQQuT3aM-52" target="JdyrteHenk-KRQQuT3aM-58" edge="1">
          <mxGeometry relative="1" as="geometry">
            <Array as="points">
              <mxPoint x="570" y="810" />
            </Array>
          </mxGeometry>
        </mxCell>
        <mxCell id="JdyrteHenk-KRQQuT3aM-67" value="Доставка" style="edgeLabel;html=1;align=center;verticalAlign=middle;resizable=0;points=[];fontSize=14;" parent="JdyrteHenk-KRQQuT3aM-65" vertex="1" connectable="0">
          <mxGeometry x="-0.0476" y="-1" relative="1" as="geometry">
            <mxPoint x="1" as="offset" />
          </mxGeometry>
        </mxCell>
        <mxCell id="JdyrteHenk-KRQQuT3aM-52" value="Сборка заказа" style="whiteSpace=wrap;html=1;fontSize=15;fillColor=none;" parent="1" vertex="1">
          <mxGeometry x="390" y="780" width="120" height="60" as="geometry" />
        </mxCell>
        <mxCell id="LFatlifbb3ukHfNOCidP-6" style="edgeStyle=orthogonalEdgeStyle;rounded=0;orthogonalLoop=1;jettySize=auto;html=1;entryX=1;entryY=0.5;entryDx=0;entryDy=0;" edge="1" parent="1" source="JdyrteHenk-KRQQuT3aM-58" target="LFatlifbb3ukHfNOCidP-4">
          <mxGeometry relative="1" as="geometry" />
        </mxCell>
        <mxCell id="JdyrteHenk-KRQQuT3aM-58" value="Отправка" style="whiteSpace=wrap;html=1;fontSize=15;fillColor=none;" parent="1" vertex="1">
          <mxGeometry x="510" y="876" width="120" height="60" as="geometry" />
        </mxCell>
        <mxCell id="JdyrteHenk-KRQQuT3aM-69" value="" style="edgeStyle=orthogonalEdgeStyle;rounded=0;orthogonalLoop=1;jettySize=auto;html=1;entryX=1;entryY=0.5;entryDx=0;entryDy=0;" parent="1" source="JdyrteHenk-KRQQuT3aM-59" target="JdyrteHenk-KRQQuT3aM-71" edge="1">
          <mxGeometry relative="1" as="geometry">
            <mxPoint x="190" y="906" as="targetPoint" />
          </mxGeometry>
        </mxCell>
        <mxCell id="LFatlifbb3ukHfNOCidP-3" value="Заказ не забрали до срока" style="edgeLabel;html=1;align=center;verticalAlign=middle;resizable=0;points=[];spacingLeft=0;fontSize=14;" vertex="1" connectable="0" parent="JdyrteHenk-KRQQuT3aM-69">
          <mxGeometry x="0.0308" relative="1" as="geometry">
            <mxPoint x="6" as="offset" />
          </mxGeometry>
        </mxCell>
        <mxCell id="LFatlifbb3ukHfNOCidP-5" style="edgeStyle=orthogonalEdgeStyle;rounded=0;orthogonalLoop=1;jettySize=auto;html=1;entryX=0;entryY=0.5;entryDx=0;entryDy=0;" edge="1" parent="1" source="JdyrteHenk-KRQQuT3aM-59" target="LFatlifbb3ukHfNOCidP-4">
          <mxGeometry relative="1" as="geometry" />
        </mxCell>
        <mxCell id="JdyrteHenk-KRQQuT3aM-59" value="Ожидает получения" style="whiteSpace=wrap;html=1;fontSize=15;fillColor=none;" parent="1" vertex="1">
          <mxGeometry x="270" y="876" width="120" height="60" as="geometry" />
        </mxCell>
        <mxCell id="JdyrteHenk-KRQQuT3aM-71" value="" style="ellipse;html=1;shape=endState;fillColor=#000000;strokeColor=#000000;" parent="1" vertex="1">
          <mxGeometry x="52.5" y="891" width="30" height="30" as="geometry" />
        </mxCell>
        <mxCell id="JdyrteHenk-KRQQuT3aM-72" value="Заказ отменён" style="text;html=1;align=center;verticalAlign=middle;whiteSpace=wrap;rounded=0;fontSize=14;" parent="1" vertex="1">
          <mxGeometry x="10" y="861" width="115" height="30" as="geometry" />
        </mxCell>
        <mxCell id="LFatlifbb3ukHfNOCidP-7" style="edgeStyle=orthogonalEdgeStyle;rounded=0;orthogonalLoop=1;jettySize=auto;html=1;entryX=0.5;entryY=0;entryDx=0;entryDy=0;" edge="1" parent="1" source="LFatlifbb3ukHfNOCidP-4" target="JdyrteHenk-KRQQuT3aM-4">
          <mxGeometry relative="1" as="geometry" />
        </mxCell>
        <mxCell id="LFatlifbb3ukHfNOCidP-4" value="Подтверждение получения" style="rounded=0;whiteSpace=wrap;html=1;" vertex="1" parent="1">
          <mxGeometry x="390" y="980" width="120" height="60" as="geometry" />
        </mxCell>
        <mxCell id="LFatlifbb3ukHfNOCidP-8" value="Заказ завершён" style="text;html=1;align=center;verticalAlign=middle;whiteSpace=wrap;rounded=0;fontSize=14;" vertex="1" parent="1">
          <mxGeometry x="392.5" y="1130" width="115" height="30" as="geometry" />
        </mxCell>
      </root>
    </mxGraphModel>
  </diagram>
</mxfile>
